<?xml version="1.0" encoding="iso-8859-1"?>
<!-- Generator: Adobe Illustrator 19.0.0, SVG Export Plug-In . SVG Version: 6.00 Build 0)  -->
<svg version="1.1" id="Capa_1" xmlns="http://www.w3.org/2000/svg" xmlns:xlink="http://www.w3.org/1999/xlink" x="0px" y="0px"
	 viewBox="0 0 480 480" style="enable-background:new 0 0 480 480;" xml:space="preserve">
<path style="fill:#555555;" d="M176,8c-44,0-80,36-80,80v16h288V88c0-44-36-80-80-80H176z M336,72H144c15.2-20,39.2-32,64-32h64
	C296.8,40,320.8,52,336,72z"/>
<path style="fill:#4D8AD1;" d="M96,104v288c0,44,36,80,80,80h128c44,0,80-36,80-80V104H96z"/>
<g>
	<path style="fill:#FBF5D9;" d="M168,136h144c13.6,0,24,10.4,24,24v32c0,13.6-10.4,24-24,24H168c-13.6,0-24-10.4-24-24v-32
		C144,146.4,154.4,136,168,136z"/>
	<path style="fill:#FBF5D9;" d="M168,248h144c13.6,0,24,10.4,24,24v32c0,13.6-10.4,24-24,24H168c-13.6,0-24-10.4-24-24v-32
		C144,258.4,154.4,248,168,248z"/>
	<path style="fill:#FBF5D9;" d="M192,368h96c13.6,0,24,10.4,24,24v16c0,13.6-10.4,24-24,24h-96c-13.6,0-24-10.4-24-24v-16
		C168,378.4,178.4,368,192,368z"/>
</g>
<path d="M176,480h128c48.8,0,88-39.2,88-88V88c0-48.8-39.2-88-88-88H176c-48.8,0-88,39.2-88,88v304C88,440.8,127.2,480,176,480z
	 M176,16h128c40,0,72,32,72,72v8H104v-8C104,48,136,16,176,16z M104,112h272v280c0,40-32,72-72,72H176c-40,0-72-32-72-72V112z"/>
<path d="M144,80h192c4.8,0,8-3.2,8-8c0-1.6-0.8-3.2-1.6-4.8C325.6,44.8,300,32,272,32h-64c-28,0-53.6,12.8-70.4,35.2
	c-2.4,3.2-1.6,8.8,1.6,11.2C140.8,79.2,142.4,80,144,80z M208,48h64c16.8,0,32,5.6,45.6,16H163.2C176,53.6,191.2,48,208,48z"/>
<path d="M168,224h144c17.6,0,32-14.4,32-32v-32c0-17.6-14.4-32-32-32H168c-17.6,0-32,14.4-32,32v32C136,209.6,150.4,224,168,224z
	 M152,160c0-8.8,7.2-16,16-16h144c8.8,0,16,7.2,16,16v32c0,8.8-7.2,16-16,16H168c-8.8,0-16-7.2-16-16V160z"/>
<path d="M168,336h144c17.6,0,32-14.4,32-32v-32c0-17.6-14.4-32-32-32H168c-17.6,0-32,14.4-32,32v32C136,321.6,150.4,336,168,336z
	 M152,272c0-8.8,7.2-16,16-16h144c8.8,0,16,7.2,16,16v32c0,8.8-7.2,16-16,16H168c-8.8,0-16-7.2-16-16V272z"/>
<path d="M288,360h-96c-17.6,0-32,14.4-32,32v16c0,17.6,14.4,32,32,32h96c17.6,0,32-14.4,32-32v-16C320,374.4,305.6,360,288,360z
	 M304,408c0,8.8-7.2,16-16,16h-96c-8.8,0-16-7.2-16-16v-16c0-8.8,7.2-16,16-16h96c8.8,0,16,7.2,16,16V408z"/>
<rect x="232" y="168" width="16" height="16"/>
<rect x="232" y="280" width="16" height="16"/>
<rect x="232" y="392" width="16" height="16"/>
<g>
</g>
<g>
</g>
<g>
</g>
<g>
</g>
<g>
</g>
<g>
</g>
<g>
</g>
<g>
</g>
<g>
</g>
<g>
</g>
<g>
</g>
<g>
</g>
<g>
</g>
<g>
</g>
<g>
</g>
</svg>
