<?xml version="1.0" encoding="UTF-8"?>
<!DOCTYPE svg PUBLIC "-//W3C//DTD SVG 1.1//EN" "http://www.w3.org/Graphics/SVG/1.1/DTD/svg11.dtd">
<svg version="1.2" width="208.28mm" height="208.28mm" viewBox="0 0 20828 20828" preserveAspectRatio="xMidYMid" fill-rule="evenodd" stroke-width="28.222" stroke-linejoin="round" xmlns="http://www.w3.org/2000/svg" xmlns:ooo="http://xml.openoffice.org/svg/export" xmlns:xlink="http://www.w3.org/1999/xlink" xmlns:presentation="http://sun.com/xmlns/staroffice/presentation" xmlns:smil="http://www.w3.org/2001/SMIL20/" xmlns:anim="urn:oasis:names:tc:opendocument:xmlns:animation:1.0" xml:space="preserve">
 <defs class="ClipPathGroup">
  <clipPath id="presentation_clip_path" clipPathUnits="userSpaceOnUse">
   <rect x="0" y="0" width="20828" height="20828"/>
  </clipPath>
  <clipPath id="presentation_clip_path_shrink" clipPathUnits="userSpaceOnUse">
   <rect x="20" y="20" width="20787" height="20787"/>
  </clipPath>
 </defs>
 <defs class="TextShapeIndex">
  <g ooo:slide="id1" ooo:id-list="id3"/>
 </defs>
 <defs class="EmbeddedBulletChars">
  <g id="bullet-char-template-57356" transform="scale(0.00048828125,-0.00048828125)">
   <path d="M 580,1141 L 1163,571 580,0 -4,571 580,1141 Z"/>
  </g>
  <g id="bullet-char-template-57354" transform="scale(0.00048828125,-0.00048828125)">
   <path d="M 8,1128 L 1137,1128 1137,0 8,0 8,1128 Z"/>
  </g>
  <g id="bullet-char-template-10146" transform="scale(0.00048828125,-0.00048828125)">
   <path d="M 174,0 L 602,739 174,1481 1456,739 174,0 Z M 1358,739 L 309,1346 659,739 1358,739 Z"/>
  </g>
  <g id="bullet-char-template-10132" transform="scale(0.00048828125,-0.00048828125)">
   <path d="M 2015,739 L 1276,0 717,0 1260,543 174,543 174,936 1260,936 717,1481 1274,1481 2015,739 Z"/>
  </g>
  <g id="bullet-char-template-10007" transform="scale(0.00048828125,-0.00048828125)">
   <path d="M 0,-2 C -7,14 -16,27 -25,37 L 356,567 C 262,823 215,952 215,954 215,979 228,992 255,992 264,992 276,990 289,987 310,991 331,999 354,1012 L 381,999 492,748 772,1049 836,1024 860,1049 C 881,1039 901,1025 922,1006 886,937 835,863 770,784 769,783 710,716 594,584 L 774,223 C 774,196 753,168 711,139 L 727,119 C 717,90 699,76 672,76 641,76 570,178 457,381 L 164,-76 C 142,-110 111,-127 72,-127 30,-127 9,-110 8,-76 1,-67 -2,-52 -2,-32 -2,-23 -1,-13 0,-2 Z"/>
  </g>
  <g id="bullet-char-template-10004" transform="scale(0.00048828125,-0.00048828125)">
   <path d="M 285,-33 C 182,-33 111,30 74,156 52,228 41,333 41,471 41,549 55,616 82,672 116,743 169,778 240,778 293,778 328,747 346,684 L 369,508 C 377,444 397,411 428,410 L 1163,1116 C 1174,1127 1196,1133 1229,1133 1271,1133 1292,1118 1292,1087 L 1292,965 C 1292,929 1282,901 1262,881 L 442,47 C 390,-6 338,-33 285,-33 Z"/>
  </g>
  <g id="bullet-char-template-9679" transform="scale(0.00048828125,-0.00048828125)">
   <path d="M 813,0 C 632,0 489,54 383,161 276,268 223,411 223,592 223,773 276,916 383,1023 489,1130 632,1184 813,1184 992,1184 1136,1130 1245,1023 1353,916 1407,772 1407,592 1407,412 1353,268 1245,161 1136,54 992,0 813,0 Z"/>
  </g>
  <g id="bullet-char-template-8226" transform="scale(0.00048828125,-0.00048828125)">
   <path d="M 346,457 C 273,457 209,483 155,535 101,586 74,649 74,723 74,796 101,859 155,911 209,963 273,989 346,989 419,989 480,963 531,910 582,859 608,796 608,723 608,648 583,586 532,535 482,483 420,457 346,457 Z"/>
  </g>
  <g id="bullet-char-template-8211" transform="scale(0.00048828125,-0.00048828125)">
   <path d="M -4,459 L 1135,459 1135,606 -4,606 -4,459 Z"/>
  </g>
  <g id="bullet-char-template-61548" transform="scale(0.00048828125,-0.00048828125)">
   <path d="M 173,740 C 173,903 231,1043 346,1159 462,1274 601,1332 765,1332 928,1332 1067,1274 1183,1159 1299,1043 1357,903 1357,740 1357,577 1299,437 1183,322 1067,206 928,148 765,148 601,148 462,206 346,322 231,437 173,577 173,740 Z"/>
  </g>
 </defs>
 <g>
  <g id="id2" class="Master_Slide">
   <g id="bg-id2" class="Background"/>
   <g id="bo-id2" class="BackgroundObjects"/>
  </g>
 </g>
 <g class="SlideGroup">
  <g>
   <g id="container-id1">
    <g id="id1" class="Slide" clip-path="url(#presentation_clip_path)">
     <g class="Page">
      <g class="Graphic">
       <g id="id3">
        <rect class="BoundingBox" stroke="none" fill="none" x="-97" y="-6271" width="21026" height="29726"/>
        <path fill="rgb(255,64,64)" stroke="none" d="M 5994,7715 C 5994,7715 5970,4735 6044,4345 6118,3955 6981,981 10168,946 13349,912 14394,3724 14468,4464 14542,5213 14503,7700 14503,7700 L 16185,7710 C 16185,7710 16762,7951 16777,8297 16787,8641 16782,9272 16782,9272 16782,9272 15716,9267 15657,9272 15598,9282 14819,9509 14735,10264 14651,11014 15026,11310 15134,11389 15243,11468 15356,11512 15356,11512 L 15361,11640 C 15361,11640 14685,11867 14725,12582 14759,13298 15169,13579 15287,13648 15406,13717 15391,13722 15391,13722 L 15391,13771 C 15391,13771 14725,13993 14725,14822 14725,15646 15554,16006 15687,16036 15820,16070 16792,16050 16792,16050 L 16787,16953 C 16787,16953 16540,17550 16205,17560 15874,17565 4322,17545 4322,17545 4322,17545 3814,17299 3769,16884 3735,16475 3765,16006 3765,16006 L 4845,16001 C 4845,16001 5762,15878 5812,14881 5861,13885 5180,13781 5180,13781 L 5180,13653 C 5180,13653 5827,13426 5827,12706 5827,11991 5471,11749 5343,11695 5210,11640 5175,11625 5175,11625 L 5180,11502 C 5180,11502 5831,11206 5831,10550 5831,9894 5471,9460 5106,9356 4736,9253 3750,9267 3750,9267 L 3779,8242 C 3779,8242 3814,7966 4080,7813 4347,7660 4406,7705 4406,7705 L 5994,7715 5994,7715 Z M 5994,7715 L 5994,7715 5994,7715 Z M 8066,16139 L 8397,16243 C 8347,16425 8259,16564 8140,16652 8027,16741 7874,16790 7691,16790 7469,16790 7282,16712 7139,16559 6991,16406 6917,16194 6917,15927 6917,15646 6991,15429 7139,15271 7287,15118 7479,15039 7716,15039 7923,15039 8091,15098 8219,15222 8293,15296 8352,15399 8392,15533 L 8051,15616 C 8032,15528 7992,15459 7928,15404 7864,15355 7785,15330 7696,15330 7573,15330 7469,15375 7390,15463 7311,15557 7272,15700 7272,15902 7272,16115 7311,16268 7390,16361 7464,16450 7568,16494 7691,16494 7780,16494 7859,16470 7923,16411 7987,16351 8037,16263 8066,16139 L 8066,16139 Z M 8066,16139 L 8066,16139 8066,16139 Z M 8688,16761 L 8688,15069 9946,15069 9946,15355 9033,15355 9033,15730 9882,15730 9882,16016 9033,16016 9033,16475 9975,16475 9975,16761 8688,16761 8688,16761 Z M 8688,16761 L 8688,16761 8688,16761 Z M 10266,16761 L 10266,15069 10813,15069 C 11020,15069 11158,15074 11217,15093 11316,15118 11400,15172 11464,15256 11528,15345 11563,15454 11563,15587 11563,15690 11543,15779 11504,15848 11464,15922 11420,15976 11361,16016 11301,16055 11242,16085 11183,16095 11104,16115 10986,16120 10828,16120 L 10606,16120 10606,16761 10266,16761 10266,16761 Z M 10266,16761 L 10266,16761 10266,16761 Z M 10606,15355 L 10606,15833 10793,15833 C 10926,15833 11020,15824 11065,15809 11109,15789 11143,15759 11168,15725 11198,15685 11208,15641 11208,15592 11208,15533 11193,15478 11153,15439 11119,15399 11074,15375 11015,15365 10976,15355 10897,15355 10773,15355 L 10606,15355 10606,15355 Z M 10606,15355 L 10606,15355 10606,15355 Z M 11829,16761 L 11829,15069 12174,15069 12174,16761 11829,16761 11829,16761 Z M 11829,16761 L 11829,16761 11829,16761 Z M 13511,16761 L 13511,16055 13442,16055 C 13334,16055 13260,16070 13210,16100 13171,16134 13092,16228 12988,16391 L 12742,16761 12332,16761 12540,16430 C 12618,16297 12683,16208 12732,16154 12781,16100 12840,16055 12914,16011 12757,15986 12643,15932 12574,15848 12505,15764 12466,15661 12466,15542 12466,15439 12495,15350 12544,15271 12599,15187 12668,15138 12752,15108 12836,15079 12964,15069 13132,15069 L 13857,15069 13857,16761 13511,16761 13511,16761 Z M 13511,16761 L 13511,16761 13511,16761 Z M 13511,15355 L 13245,15355 C 13107,15355 13018,15355 12979,15365 12934,15370 12895,15389 12865,15424 12836,15459 12821,15508 12821,15562 12821,15621 12836,15671 12865,15705 12895,15740 12934,15759 12979,15769 13023,15779 13117,15784 13260,15784 L 13511,15784 13511,15355 13511,15355 Z M 13511,15355 L 13511,15355 13511,15355 Z M 9161,14413 L 9161,13924 9438,13924 C 9630,13924 9748,13900 9793,13855 9837,13811 9862,13702 9862,13525 L 9862,10984 C 9862,10812 9837,10698 9793,10654 9748,10609 9630,10585 9438,10585 L 9161,10585 9161,10101 11489,10101 11489,10585 11213,10585 C 11020,10585 10902,10609 10852,10654 10808,10698 10783,10812 10783,10984 L 10783,13525 C 10783,13702 10808,13811 10852,13855 10902,13900 11020,13924 11213,13924 L 11489,13924 11489,14413 9161,14413 9161,14413 Z M 9161,14413 L 9161,14413 9161,14413 Z M 10370,8366 C 10744,8366 11045,8671 11045,9045 11045,9420 10744,9726 10370,9726 9990,9726 9689,9420 9689,9045 9689,8671 9990,8366 10370,8366 L 10370,8366 Z M 10370,8366 L 10370,8366 10370,8366 Z M 7104,7690 L 13418,7690 C 13418,7690 13467,4631 13413,4488 13358,4345 12618,1928 10079,2027 7543,2120 7070,4671 7080,4927 7094,5189 7104,7690 7104,7690 L 7104,7690 Z"/>
        <path fill="rgb(255,64,64)" stroke="none" d="M 4598,18221 L 15933,18201 15919,19104 C 15919,19104 15894,19582 15396,19725 14897,19873 5244,19775 5180,19775 5116,19775 4662,19533 4613,19296 4568,19064 4598,18221 4598,18221 L 4598,18221 Z"/>
        <path fill="rgb(255,64,64)" stroke="none" d="M 9309,6520 C 9309,6688 9225,6772 9053,6772 L 8180,6772 C 8012,6772 7933,6688 7933,6520 L 7933,4231 C 7933,4064 8017,3980 8185,3980 L 9053,3980 C 9225,3980 9309,4064 9309,4231 L 9309,4833 8890,4833 8890,4335 8347,4335 8347,6417 8890,6417 8890,5632 8579,5632 8579,5277 9309,5277 9309,6520 9309,6520 Z M 9309,6520 L 9309,6520 9309,6520 Z M 10991,5499 C 10991,5672 10907,5761 10739,5761 L 10059,5761 10059,6772 9640,6772 9640,3980 10739,3980 C 10907,3980 10991,4064 10991,4231 L 10991,5499 10991,5499 Z M 10991,5499 L 10991,5499 10991,5499 Z M 10571,5401 L 10571,4335 10059,4335 10059,5401 10571,5401 10571,5401 Z M 10571,5401 L 10571,5401 10571,5401 Z M 12623,6520 C 12623,6688 12540,6772 12372,6772 L 11533,6772 C 11365,6772 11282,6688 11282,6520 L 11282,5849 11696,5849 11696,6422 12204,6422 12204,5869 11370,5080 C 11311,5021 11282,4947 11282,4858 L 11282,4231 C 11282,4064 11365,3980 11533,3980 L 12372,3980 C 12540,3980 12623,4064 12623,4231 L 12623,4858 12204,4858 12204,4330 11696,4330 11696,4838 12530,5623 C 12594,5682 12623,5756 12623,5849 L 12623,6520 12623,6520 Z"/>
        <path fill="rgb(255,64,64)" stroke="none" d="M 3557,9977 L 4722,9977 C 4953,9977 5146,10165 5146,10397 L 5146,10599 C 5146,10831 4953,11023 4722,11023 L 3557,11023 C 3325,11023 3138,10831 3138,10599 L 3138,10397 C 3138,10165 3325,9977 3557,9977 L 3557,9977 Z"/>
        <path fill="rgb(255,64,64)" stroke="none" d="M 3557,12143 L 4722,12143 C 4953,12143 5146,12331 5146,12562 L 5146,12765 C 5146,12997 4953,13189 4722,13189 L 3557,13189 C 3325,13189 3138,12997 3138,12765 L 3138,12562 C 3138,12331 3325,12143 3557,12143 L 3557,12143 Z"/>
        <path fill="rgb(255,64,64)" stroke="none" d="M 3557,14255 L 4722,14255 C 4953,14255 5146,14442 5146,14674 L 5146,14876 C 5146,15108 4953,15300 4722,15300 L 3557,15300 C 3325,15300 3138,15108 3138,14876 L 3138,14674 C 3138,14442 3325,14255 3557,14255 L 3557,14255 Z"/>
        <path fill="rgb(255,64,64)" stroke="none" d="M 15786,9977 L 16950,9977 C 17182,9977 17374,10165 17374,10397 L 17374,10599 C 17374,10831 17182,11023 16950,11023 L 15786,11023 C 15554,11023 15366,10831 15366,10599 L 15366,10397 C 15366,10165 15554,9977 15786,9977 L 15786,9977 Z"/>
        <path fill="rgb(255,64,64)" stroke="none" d="M 15786,12143 L 16950,12143 C 17182,12143 17374,12331 17374,12562 L 17374,12765 C 17374,12997 17182,13189 16950,13189 L 15786,13189 C 15554,13189 15366,12997 15366,12765 L 15366,12562 C 15366,12331 15554,12143 15786,12143 L 15786,12143 Z"/>
        <path fill="rgb(255,64,64)" stroke="none" d="M 15786,14255 L 16950,14255 C 17182,14255 17374,14442 17374,14674 L 17374,14876 C 17374,15108 17182,15300 16950,15300 L 15786,15300 C 15554,15300 15366,15108 15366,14876 L 15366,14674 C 15366,14442 15554,14255 15786,14255 L 15786,14255 Z"/>
       </g>
      </g>
     </g>
    </g>
   </g>
  </g>
 </g>
</svg>