<?xml version="1.0" encoding="UTF-8"?>
<!DOCTYPE svg PUBLIC "-//W3C//DTD SVG 1.1//EN" "http://www.w3.org/Graphics/SVG/1.1/DTD/svg11.dtd">
<svg version="1.2" width="180mm" height="180mm" viewBox="0 0 18000 18000" preserveAspectRatio="xMidYMid" fill-rule="evenodd" stroke-width="28.222" stroke-linejoin="round" xmlns="http://www.w3.org/2000/svg" xmlns:ooo="http://xml.openoffice.org/svg/export" xmlns:xlink="http://www.w3.org/1999/xlink" xmlns:presentation="http://sun.com/xmlns/staroffice/presentation" xmlns:smil="http://www.w3.org/2001/SMIL20/" xmlns:anim="urn:oasis:names:tc:opendocument:xmlns:animation:1.0" xml:space="preserve">
 <defs class="ClipPathGroup">
  <clipPath id="presentation_clip_path" clipPathUnits="userSpaceOnUse">
   <rect x="0" y="0" width="18000" height="18000"/>
  </clipPath>
  <clipPath id="presentation_clip_path_shrink" clipPathUnits="userSpaceOnUse">
   <rect x="18" y="18" width="17964" height="17964"/>
  </clipPath>
 </defs>
 <defs class="TextShapeIndex">
  <g ooo:slide="id1" ooo:id-list="id3 id4 id5 id6 id7 id8 id9 id10 id11 id12 id13 id14"/>
 </defs>
 <defs class="EmbeddedBulletChars">
  <g id="bullet-char-template-57356" transform="scale(0.00048828125,-0.00048828125)">
   <path d="M 580,1141 L 1163,571 580,0 -4,571 580,1141 Z"/>
  </g>
  <g id="bullet-char-template-57354" transform="scale(0.00048828125,-0.00048828125)">
   <path d="M 8,1128 L 1137,1128 1137,0 8,0 8,1128 Z"/>
  </g>
  <g id="bullet-char-template-10146" transform="scale(0.00048828125,-0.00048828125)">
   <path d="M 174,0 L 602,739 174,1481 1456,739 174,0 Z M 1358,739 L 309,1346 659,739 1358,739 Z"/>
  </g>
  <g id="bullet-char-template-10132" transform="scale(0.00048828125,-0.00048828125)">
   <path d="M 2015,739 L 1276,0 717,0 1260,543 174,543 174,936 1260,936 717,1481 1274,1481 2015,739 Z"/>
  </g>
  <g id="bullet-char-template-10007" transform="scale(0.00048828125,-0.00048828125)">
   <path d="M 0,-2 C -7,14 -16,27 -25,37 L 356,567 C 262,823 215,952 215,954 215,979 228,992 255,992 264,992 276,990 289,987 310,991 331,999 354,1012 L 381,999 492,748 772,1049 836,1024 860,1049 C 881,1039 901,1025 922,1006 886,937 835,863 770,784 769,783 710,716 594,584 L 774,223 C 774,196 753,168 711,139 L 727,119 C 717,90 699,76 672,76 641,76 570,178 457,381 L 164,-76 C 142,-110 111,-127 72,-127 30,-127 9,-110 8,-76 1,-67 -2,-52 -2,-32 -2,-23 -1,-13 0,-2 Z"/>
  </g>
  <g id="bullet-char-template-10004" transform="scale(0.00048828125,-0.00048828125)">
   <path d="M 285,-33 C 182,-33 111,30 74,156 52,228 41,333 41,471 41,549 55,616 82,672 116,743 169,778 240,778 293,778 328,747 346,684 L 369,508 C 377,444 397,411 428,410 L 1163,1116 C 1174,1127 1196,1133 1229,1133 1271,1133 1292,1118 1292,1087 L 1292,965 C 1292,929 1282,901 1262,881 L 442,47 C 390,-6 338,-33 285,-33 Z"/>
  </g>
  <g id="bullet-char-template-9679" transform="scale(0.00048828125,-0.00048828125)">
   <path d="M 813,0 C 632,0 489,54 383,161 276,268 223,411 223,592 223,773 276,916 383,1023 489,1130 632,1184 813,1184 992,1184 1136,1130 1245,1023 1353,916 1407,772 1407,592 1407,412 1353,268 1245,161 1136,54 992,0 813,0 Z"/>
  </g>
  <g id="bullet-char-template-8226" transform="scale(0.00048828125,-0.00048828125)">
   <path d="M 346,457 C 273,457 209,483 155,535 101,586 74,649 74,723 74,796 101,859 155,911 209,963 273,989 346,989 419,989 480,963 531,910 582,859 608,796 608,723 608,648 583,586 532,535 482,483 420,457 346,457 Z"/>
  </g>
  <g id="bullet-char-template-8211" transform="scale(0.00048828125,-0.00048828125)">
   <path d="M -4,459 L 1135,459 1135,606 -4,606 -4,459 Z"/>
  </g>
  <g id="bullet-char-template-61548" transform="scale(0.00048828125,-0.00048828125)">
   <path d="M 173,740 C 173,903 231,1043 346,1159 462,1274 601,1332 765,1332 928,1332 1067,1274 1183,1159 1299,1043 1357,903 1357,740 1357,577 1299,437 1183,322 1067,206 928,148 765,148 601,148 462,206 346,322 231,437 173,577 173,740 Z"/>
  </g>
 </defs>
 <g>
  <g id="id2" class="Master_Slide">
   <g id="bg-id2" class="Background"/>
   <g id="bo-id2" class="BackgroundObjects"/>
  </g>
 </g>
 <g class="SlideGroup">
  <g>
   <g id="container-id1">
    <g id="id1" class="Slide" clip-path="url(#presentation_clip_path)">
     <g class="Page">
      <g class="com.sun.star.drawing.ClosedBezierShape">
       <g id="id3">
        <rect class="BoundingBox" stroke="none" fill="none" x="2916" y="580" width="11628" height="14814"/>
        <path fill="rgb(255,64,64)" stroke="none" d="M 4920,6614 C 4920,6614 4897,3958 4964,3610 5027,3266 5796,613 8633,581 11473,549 12403,3059 12469,3719 12532,4383 12501,6602 12501,6602 L 14002,6611 C 14002,6611 14514,6826 14525,7133 14537,7443 14531,8003 14531,8003 14531,8003 13583,7998 13529,8006 13474,8015 12782,8216 12708,8888 12630,9560 12963,9818 13061,9890 13158,9959 13262,10002 13262,10002 L 13267,10117 C 13267,10117 12664,10318 12696,10955 12728,11595 13095,11842 13199,11906 13305,11966 13290,11969 13290,11969 L 13290,12015 C 13290,12015 12696,12213 12696,12951 12696,13686 13434,14007 13552,14036 13672,14062 14542,14045 14542,14045 L 14537,14852 C 14537,14852 14315,15386 14017,15391 13721,15397 3427,15380 3427,15380 3427,15380 2974,15159 2936,14791 2902,14424 2931,14007 2931,14007 L 3893,14002 C 3893,14002 4714,13893 4757,13005 4800,12118 4191,12023 4191,12023 L 4194,11908 C 4194,11908 4768,11707 4768,11067 4768,10430 4452,10211 4335,10163 4220,10114 4188,10099 4188,10099 L 4194,9993 C 4194,9993 4774,9726 4774,9143 4774,8560 4455,8173 4125,8081 3795,7989 2916,7998 2916,7998 L 2942,7085 C 2942,7085 2974,6838 3212,6703 3450,6568 3505,6605 3505,6605 L 4920,6614 Z M 4920,6614 L 4920,6614 Z M 5905,6591 L 11539,6591 C 11539,6591 11582,3869 11533,3739 11484,3610 10824,1457 8558,1543 6293,1629 5871,3903 5882,4130 5894,4363 5905,6591 5905,6591 Z"/>
       </g>
      </g>
      <g class="com.sun.star.drawing.ClosedBezierShape">
       <g id="id4">
        <rect class="BoundingBox" stroke="none" fill="none" x="3603" y="16006" width="10117" height="1428"/>
        <path fill="rgb(255,64,64)" stroke="none" d="M 3611,16027 L 13718,16007 13707,16811 C 13707,16811 13687,17233 13242,17362 12800,17491 4186,17402 4128,17405 4074,17405 3669,17190 3626,16983 3585,16779 3611,16027 3611,16027 Z"/>
       </g>
      </g>
      <g class="com.sun.star.drawing.ClosedBezierShape">
       <g id="id5">
        <rect class="BoundingBox" stroke="none" fill="none" x="7677" y="8782" width="2078" height="3844"/>
        <path fill="rgb(255,255,255)" stroke="none" d="M 7678,12624 L 7678,12188 7922,12188 C 8091,12188 8200,12168 8240,12128 8281,12087 8301,11990 8301,11832 L 8301,9569 C 8301,9411 8281,9314 8240,9273 8200,9233 8091,9213 7922,9213 L 7678,9213 7678,8782 9754,8782 9754,9213 9509,9213 C 9337,9213 9228,9233 9188,9273 9145,9314 9125,9411 9125,9569 L 9125,11832 C 9125,11990 9145,12087 9188,12128 9228,12168 9337,12188 9509,12188 L 9754,12188 9754,12624 7678,12624 Z"/>
       </g>
      </g>
      <g class="com.sun.star.drawing.ClosedBezierShape">
       <g id="id6">
        <rect class="BoundingBox" stroke="none" fill="none" x="5682" y="13178" width="6183" height="1564"/>
        <path fill="rgb(255,255,255)" stroke="none" d="M 6698,14160 L 6994,14252 C 6948,14419 6874,14539 6767,14620 6664,14700 6529,14740 6368,14740 6167,14740 6004,14672 5874,14534 5745,14399 5682,14209 5682,13974 5682,13718 5745,13523 5874,13385 6004,13247 6176,13178 6385,13178 6572,13178 6721,13230 6836,13342 6905,13405 6957,13497 6991,13618 L 6690,13690 C 6673,13612 6635,13552 6578,13506 6520,13460 6452,13437 6371,13437 6259,13437 6167,13477 6098,13557 6029,13638 5995,13767 5995,13948 5995,14140 6029,14278 6098,14359 6167,14439 6256,14479 6365,14479 6446,14479 6515,14453 6575,14402 6632,14350 6673,14270 6698,14160 Z M 6698,14160 L 6698,14160 Z M 7255,14715 L 7255,13201 8375,13201 8375,13457 7560,13457 7560,13793 8318,13793 8318,14048 7560,14048 7560,14459 8404,14459 8404,14715 7255,14715 Z M 7255,14715 L 7255,14715 Z M 8662,14715 L 8662,13201 9153,13201 C 9337,13201 9458,13210 9515,13224 9601,13247 9673,13296 9733,13374 9791,13448 9820,13546 9820,13667 9820,13758 9802,13836 9771,13899 9736,13965 9693,14017 9642,14051 9590,14089 9538,14112 9484,14123 9412,14137 9306,14146 9168,14146 L 8970,14146 8970,14715 8662,14715 Z M 8662,14715 L 8662,14715 Z M 8970,13457 L 8970,13885 9136,13885 C 9257,13885 9337,13879 9377,13862 9418,13847 9449,13822 9472,13787 9495,13756 9507,13715 9507,13669 9507,13615 9489,13572 9458,13535 9426,13500 9386,13477 9334,13468 9300,13460 9225,13457 9116,13457 L 8970,13457 Z M 8970,13457 L 8970,13457 Z M 10061,14715 L 10061,13201 10365,13201 10365,14715 10061,14715 Z M 10061,14715 L 10061,14715 Z M 11557,14715 L 11557,14083 11496,14083 C 11402,14083 11333,14100 11293,14129 11252,14158 11186,14244 11092,14384 L 10871,14715 10506,14715 10690,14419 C 10764,14304 10822,14221 10865,14175 10908,14129 10962,14086 11028,14048 10888,14025 10784,13977 10721,13899 10661,13822 10629,13733 10629,13626 10629,13535 10652,13454 10698,13382 10744,13311 10804,13265 10882,13239 10957,13216 11072,13201 11221,13201 L 11864,13201 11864,14715 11557,14715 Z M 11557,14715 L 11557,14715 Z M 11557,13457 L 11321,13457 C 11201,13457 11120,13460 11083,13466 11043,13471 11011,13489 10982,13520 10957,13555 10942,13595 10942,13646 10942,13698 10957,13741 10982,13770 11008,13802 11043,13822 11083,13830 11123,13836 11206,13842 11333,13842 L 11557,13842 11557,13457 Z"/>
       </g>
      </g>
      <g class="com.sun.star.drawing.ClosedBezierShape">
       <g id="id7">
        <rect class="BoundingBox" stroke="none" fill="none" x="6583" y="3326" width="4327" height="2630"/>
        <path fill="rgb(255,64,64)" stroke="none" d="M 7956,5728 C 7956,5877 7879,5954 7724,5954 L 6946,5954 C 6796,5954 6725,5877 6725,5728 L 6725,3695 C 6725,3543 6799,3468 6949,3468 L 7724,3468 C 7879,3468 7956,3543 7956,3695 L 7956,4226 7580,4226 7580,3787 7095,3787 7095,5636 7580,5636 7580,4941 7302,4941 7302,4619 7956,4619 7956,5728 Z M 7956,5728 L 7956,5728 Z M 9452,4823 C 9452,4975 9378,5053 9226,5053 L 8623,5053 8623,5954 8252,5954 8252,3468 9226,3468 C 9378,3468 9452,3543 9452,3695 L 9452,4823 Z M 9452,4823 L 9452,4823 Z M 9076,4734 L 9076,3787 8623,3787 8623,4734 9076,4734 Z M 9076,4734 L 9076,4734 Z M 10908,5728 C 10908,5877 10833,5954 10684,5954 L 9935,5954 C 9783,5954 9708,5877 9708,5728 L 9708,5133 10084,5133 10084,5642 10538,5642 10538,5153 9791,4447 C 9737,4395 9708,4329 9708,4246 L 9708,3695 C 9708,3543 9783,3468 9935,3468 L 10684,3468 C 10833,3468 10908,3543 10908,3692 L 10908,4246 10538,4246 10538,3778 10084,3778 10084,4229 10828,4932 C 10882,4984 10908,5050 10908,5133 L 10908,5728 Z"/>
        <path fill="rgb(255,255,255)" stroke="none" d="M 7815,5587 C 7815,5736 7738,5813 7583,5813 L 6805,5813 C 6655,5813 6584,5736 6584,5587 L 6584,3554 C 6584,3402 6658,3327 6808,3327 L 7583,3327 C 7738,3327 7815,3402 7815,3554 L 7815,4085 7439,4085 7439,3646 6954,3646 6954,5495 7439,5495 7439,4800 7161,4800 7161,4478 7815,4478 7815,5587 Z M 7815,5587 L 7815,5587 Z M 9311,4682 C 9311,4834 9237,4912 9085,4912 L 8482,4912 8482,5813 8111,5813 8111,3327 9085,3327 C 9237,3327 9311,3402 9311,3554 L 9311,4682 Z M 9311,4682 L 9311,4682 Z M 8935,4593 L 8935,3646 8482,3646 8482,4593 8935,4593 Z M 8935,4593 L 8935,4593 Z M 10767,5587 C 10767,5736 10692,5813 10543,5813 L 9794,5813 C 9642,5813 9567,5736 9567,5587 L 9567,4992 9943,4992 9943,5501 10397,5501 10397,5012 9650,4306 C 9596,4254 9567,4188 9567,4105 L 9567,3554 C 9567,3402 9642,3327 9794,3327 L 10543,3327 C 10692,3327 10767,3402 10767,3551 L 10767,4105 10397,4105 10397,3637 9943,3637 9943,4088 10687,4791 C 10741,4843 10767,4909 10767,4992 L 10767,5587 Z"/>
       </g>
      </g>
      <g class="com.sun.star.drawing.ClosedBezierShape">
       <g id="id8">
        <rect class="BoundingBox" stroke="none" fill="none" x="2308" y="8673" width="1793" height="935"/>
        <path fill="rgb(255,64,64)" stroke="none" d="M 2684,8673 L 3724,8673 C 3930,8673 4100,8840 4100,9052 L 4100,9227 C 4100,9437 3930,9607 3724,9607 L 2684,9607 C 2475,9607 2308,9437 2308,9227 L 2308,9052 C 2308,8840 2475,8673 2684,8673 Z"/>
       </g>
      </g>
      <g class="com.sun.star.drawing.ClosedBezierShape">
       <g id="id9">
        <rect class="BoundingBox" stroke="none" fill="none" x="2308" y="10688" width="1793" height="935"/>
        <path fill="rgb(255,64,64)" stroke="none" d="M 2684,10689 L 3724,10689 C 3930,10689 4100,10855 4100,11068 L 4100,11243 C 4100,11452 3930,11622 3724,11622 L 2684,11622 C 2475,11622 2308,11452 2308,11243 L 2308,11068 C 2308,10855 2475,10689 2684,10689 Z"/>
       </g>
      </g>
      <g class="com.sun.star.drawing.ClosedBezierShape">
       <g id="id10">
        <rect class="BoundingBox" stroke="none" fill="none" x="2308" y="12575" width="1793" height="935"/>
        <path fill="rgb(255,64,64)" stroke="none" d="M 2684,12575 L 3724,12575 C 3930,12575 4100,12742 4100,12954 L 4100,13129 C 4100,13339 3930,13508 3724,13508 L 2684,13508 C 2475,13508 2308,13339 2308,13129 L 2308,12954 C 2308,12742 2475,12575 2684,12575 Z"/>
       </g>
      </g>
      <g class="com.sun.star.drawing.ClosedBezierShape">
       <g id="id11">
        <rect class="BoundingBox" stroke="none" fill="none" x="13213" y="8759" width="1794" height="935"/>
        <path fill="rgb(255,64,64)" stroke="none" d="M 13590,8759 L 14629,8759 C 14836,8759 15005,8926 15005,9138 L 15005,9313 C 15005,9523 14836,9692 14629,9692 L 13590,9692 C 13380,9692 13214,9523 13214,9313 L 13214,9138 C 13214,8926 13380,8759 13590,8759 Z"/>
       </g>
      </g>
      <g class="com.sun.star.drawing.ClosedBezierShape">
       <g id="id12">
        <rect class="BoundingBox" stroke="none" fill="none" x="13213" y="10688" width="1794" height="935"/>
        <path fill="rgb(255,64,64)" stroke="none" d="M 13590,10689 L 14629,10689 C 14836,10689 15005,10855 15005,11068 L 15005,11243 C 15005,11452 14836,11622 14629,11622 L 13590,11622 C 13380,11622 13214,11452 13214,11243 L 13214,11068 C 13214,10855 13380,10689 13590,10689 Z"/>
       </g>
      </g>
      <g class="com.sun.star.drawing.ClosedBezierShape">
       <g id="id13">
        <rect class="BoundingBox" stroke="none" fill="none" x="13213" y="12575" width="1794" height="935"/>
        <path fill="rgb(255,64,64)" stroke="none" d="M 13590,12575 L 14629,12575 C 14836,12575 15005,12742 15005,12954 L 15005,13129 C 15005,13339 14836,13508 14629,13508 L 13590,13508 C 13380,13508 13214,13339 13214,13129 L 13214,12954 C 13214,12742 13380,12575 13590,12575 Z"/>
       </g>
      </g>
      <g class="com.sun.star.drawing.ClosedBezierShape">
       <g id="id14">
        <rect class="BoundingBox" stroke="none" fill="none" x="8145" y="7231" width="1217" height="1217"/>
        <path fill="rgb(255,255,255)" stroke="none" d="M 8754,7232 C 9087,7232 9360,7502 9360,7841 9360,8174 9087,8446 8754,8446 8416,8446 8146,8174 8146,7841 8146,7502 8416,7232 8754,7232 Z"/>
       </g>
      </g>
     </g>
    </g>
   </g>
  </g>
 </g>
</svg>