<?xml version="1.0" encoding="UTF-8"?>
<!DOCTYPE svg PUBLIC "-//W3C//DTD SVG 1.1//EN" "http://www.w3.org/Graphics/SVG/1.1/DTD/svg11.dtd">
<svg version="1.2" width="190mm" height="190mm" viewBox="0 0 19000 19000" preserveAspectRatio="xMidYMid" fill-rule="evenodd" stroke-width="28.222" stroke-linejoin="round" xmlns="http://www.w3.org/2000/svg" xmlns:ooo="http://xml.openoffice.org/svg/export" xmlns:xlink="http://www.w3.org/1999/xlink" xmlns:presentation="http://sun.com/xmlns/staroffice/presentation" xmlns:smil="http://www.w3.org/2001/SMIL20/" xmlns:anim="urn:oasis:names:tc:opendocument:xmlns:animation:1.0" xml:space="preserve">
 <defs class="ClipPathGroup">
  <clipPath id="presentation_clip_path" clipPathUnits="userSpaceOnUse">
   <rect x="0" y="0" width="19000" height="19000"/>
  </clipPath>
  <clipPath id="presentation_clip_path_shrink" clipPathUnits="userSpaceOnUse">
   <rect x="19" y="19" width="18962" height="18962"/>
  </clipPath>
 </defs>
 <defs class="TextShapeIndex">
  <g ooo:slide="id1" ooo:id-list="id3 id4 id5 id6 id7 id8 id9 id10 id11 id12 id13 id14"/>
 </defs>
 <defs class="EmbeddedBulletChars">
  <g id="bullet-char-template-57356" transform="scale(0.00048828125,-0.00048828125)">
   <path d="M 580,1141 L 1163,571 580,0 -4,571 580,1141 Z"/>
  </g>
  <g id="bullet-char-template-57354" transform="scale(0.00048828125,-0.00048828125)">
   <path d="M 8,1128 L 1137,1128 1137,0 8,0 8,1128 Z"/>
  </g>
  <g id="bullet-char-template-10146" transform="scale(0.00048828125,-0.00048828125)">
   <path d="M 174,0 L 602,739 174,1481 1456,739 174,0 Z M 1358,739 L 309,1346 659,739 1358,739 Z"/>
  </g>
  <g id="bullet-char-template-10132" transform="scale(0.00048828125,-0.00048828125)">
   <path d="M 2015,739 L 1276,0 717,0 1260,543 174,543 174,936 1260,936 717,1481 1274,1481 2015,739 Z"/>
  </g>
  <g id="bullet-char-template-10007" transform="scale(0.00048828125,-0.00048828125)">
   <path d="M 0,-2 C -7,14 -16,27 -25,37 L 356,567 C 262,823 215,952 215,954 215,979 228,992 255,992 264,992 276,990 289,987 310,991 331,999 354,1012 L 381,999 492,748 772,1049 836,1024 860,1049 C 881,1039 901,1025 922,1006 886,937 835,863 770,784 769,783 710,716 594,584 L 774,223 C 774,196 753,168 711,139 L 727,119 C 717,90 699,76 672,76 641,76 570,178 457,381 L 164,-76 C 142,-110 111,-127 72,-127 30,-127 9,-110 8,-76 1,-67 -2,-52 -2,-32 -2,-23 -1,-13 0,-2 Z"/>
  </g>
  <g id="bullet-char-template-10004" transform="scale(0.00048828125,-0.00048828125)">
   <path d="M 285,-33 C 182,-33 111,30 74,156 52,228 41,333 41,471 41,549 55,616 82,672 116,743 169,778 240,778 293,778 328,747 346,684 L 369,508 C 377,444 397,411 428,410 L 1163,1116 C 1174,1127 1196,1133 1229,1133 1271,1133 1292,1118 1292,1087 L 1292,965 C 1292,929 1282,901 1262,881 L 442,47 C 390,-6 338,-33 285,-33 Z"/>
  </g>
  <g id="bullet-char-template-9679" transform="scale(0.00048828125,-0.00048828125)">
   <path d="M 813,0 C 632,0 489,54 383,161 276,268 223,411 223,592 223,773 276,916 383,1023 489,1130 632,1184 813,1184 992,1184 1136,1130 1245,1023 1353,916 1407,772 1407,592 1407,412 1353,268 1245,161 1136,54 992,0 813,0 Z"/>
  </g>
  <g id="bullet-char-template-8226" transform="scale(0.00048828125,-0.00048828125)">
   <path d="M 346,457 C 273,457 209,483 155,535 101,586 74,649 74,723 74,796 101,859 155,911 209,963 273,989 346,989 419,989 480,963 531,910 582,859 608,796 608,723 608,648 583,586 532,535 482,483 420,457 346,457 Z"/>
  </g>
  <g id="bullet-char-template-8211" transform="scale(0.00048828125,-0.00048828125)">
   <path d="M -4,459 L 1135,459 1135,606 -4,606 -4,459 Z"/>
  </g>
  <g id="bullet-char-template-61548" transform="scale(0.00048828125,-0.00048828125)">
   <path d="M 173,740 C 173,903 231,1043 346,1159 462,1274 601,1332 765,1332 928,1332 1067,1274 1183,1159 1299,1043 1357,903 1357,740 1357,577 1299,437 1183,322 1067,206 928,148 765,148 601,148 462,206 346,322 231,437 173,577 173,740 Z"/>
  </g>
 </defs>
 <g>
  <g id="id2" class="Master_Slide">
   <g id="bg-id2" class="Background"/>
   <g id="bo-id2" class="BackgroundObjects"/>
  </g>
 </g>
 <g class="SlideGroup">
  <g>
   <g id="container-id1">
    <g id="id1" class="Slide" clip-path="url(#presentation_clip_path)">
     <g class="Page">
      <g class="Group">
       <g class="com.sun.star.drawing.ClosedBezierShape">
        <g id="id3">
         <rect class="BoundingBox" stroke="none" fill="none" x="3094" y="699" width="12213" height="15559"/>
         <path fill="rgb(71,82,86)" stroke="none" d="M 5200,7036 C 5200,7036 5176,4247 5245,3882 5311,3520 6120,733 9099,700 12081,667 13059,3303 13128,3996 13194,4693 13161,7024 13161,7024 L 14738,7033 C 14738,7033 15275,7259 15287,7582 15299,7908 15293,8496 15293,8496 15293,8496 14298,8490 14241,8499 14183,8508 13457,8719 13378,9424 13297,10130 13647,10402 13749,10477 13852,10549 13960,10595 13960,10595 L 13966,10715 C 13966,10715 13333,10926 13366,11596 13399,12268 13785,12528 13894,12594 14005,12657 13990,12660 13990,12660 L 13990,12708 C 13990,12708 13366,12917 13366,13692 13366,14464 14141,14801 14265,14831 14391,14859 15305,14840 15305,14840 L 15299,15688 C 15299,15688 15067,16249 14753,16255 14443,16261 3632,16243 3632,16243 3632,16243 3155,16011 3116,15625 3080,15239 3110,14801 3110,14801 L 4120,14795 C 4120,14795 4983,14681 5028,13749 5073,12817 4434,12717 4434,12717 L 4437,12597 C 4437,12597 5040,12386 5040,11713 5040,11044 4708,10815 4585,10763 4464,10712 4431,10697 4431,10697 L 4437,10585 C 4437,10585 5046,10305 5046,9693 5046,9081 4711,8674 4365,8577 4018,8481 3095,8490 3095,8490 L 3122,7531 C 3122,7531 3155,7271 3406,7130 3656,6988 3713,7027 3713,7027 L 5200,7036 Z M 5200,7036 L 5200,7036 Z M 6234,7012 L 12151,7012 C 12151,7012 12196,4153 12145,4017 12094,3882 11400,1620 9021,1711 6641,1801 6198,4189 6210,4428 6222,4672 6234,7012 6234,7012 Z"/>
        </g>
       </g>
       <g class="com.sun.star.drawing.ClosedBezierShape">
        <g id="id4">
         <rect class="BoundingBox" stroke="none" fill="none" x="3882" y="16860" width="10625" height="1499"/>
         <path fill="rgb(77,167,175)" stroke="none" d="M 3891,16882 L 14506,16861 14493,17705 C 14493,17705 14472,18148 14005,18284 13541,18420 4494,18326 4433,18329 4376,18329 3951,18103 3906,17886 3863,17672 3891,16882 3891,16882 Z"/>
        </g>
       </g>
       <g class="com.sun.star.drawing.ClosedBezierShape">
        <g id="id5">
         <rect class="BoundingBox" stroke="none" fill="none" x="8161" y="9273" width="2182" height="4037"/>
         <path fill="rgb(255,255,255)" stroke="none" d="M 8161,13308 L 8161,12850 8418,12850 C 8595,12850 8710,12829 8752,12787 8794,12744 8816,12642 8816,12476 L 8816,10100 C 8816,9934 8794,9831 8752,9789 8710,9747 8595,9726 8418,9726 L 8161,9726 8161,9273 10341,9273 10341,9726 10085,9726 C 9904,9726 9790,9747 9747,9789 9702,9831 9681,9934 9681,10100 L 9681,12476 C 9681,12642 9702,12744 9747,12787 9790,12829 9904,12850 10085,12850 L 10341,12850 10341,13308 8161,13308 Z"/>
        </g>
       </g>
       <g class="com.sun.star.drawing.ClosedBezierShape">
        <g id="id6">
         <rect class="BoundingBox" stroke="none" fill="none" x="6065" y="13890" width="6494" height="1642"/>
         <path fill="rgb(255,255,255)" stroke="none" d="M 7133,14922 L 7443,15018 C 7395,15193 7317,15320 7205,15404 7097,15489 6955,15531 6786,15531 6575,15531 6403,15458 6267,15314 6132,15172 6065,14973 6065,14726 6065,14457 6132,14252 6267,14107 6403,13963 6584,13890 6804,13890 7000,13890 7157,13945 7278,14062 7350,14128 7404,14225 7440,14352 L 7124,14427 C 7106,14346 7067,14282 7006,14234 6946,14186 6874,14162 6789,14162 6671,14162 6575,14204 6503,14288 6430,14373 6394,14508 6394,14698 6394,14900 6430,15045 6503,15130 6575,15214 6668,15256 6783,15256 6867,15256 6940,15229 7003,15175 7063,15121 7106,15036 7133,14922 Z M 7133,14922 L 7133,14922 Z M 7718,15504 L 7718,13914 8894,13914 8894,14183 8038,14183 8038,14536 8834,14536 8834,14804 8038,14804 8038,15235 8924,15235 8924,15504 7718,15504 Z M 7718,15504 L 7718,15504 Z M 9196,15504 L 9196,13914 9711,13914 C 9904,13914 10031,13923 10091,13939 10182,13963 10257,14014 10320,14095 10381,14174 10411,14276 10411,14403 10411,14499 10393,14581 10360,14647 10323,14717 10278,14771 10224,14807 10170,14846 10115,14870 10058,14882 9983,14897 9871,14907 9726,14907 L 9518,14907 9518,15504 9196,15504 Z M 9196,15504 L 9196,15504 Z M 9518,14183 L 9518,14632 9693,14632 C 9820,14632 9904,14626 9946,14608 9989,14593 10022,14566 10046,14530 10070,14496 10082,14454 10082,14406 10082,14349 10064,14303 10031,14264 9998,14228 9955,14204 9901,14195 9865,14186 9787,14183 9672,14183 L 9518,14183 Z M 9518,14183 L 9518,14183 Z M 10664,15504 L 10664,13914 10984,13914 10984,15504 10664,15504 Z M 10664,15504 L 10664,15504 Z M 12235,15504 L 12235,14840 12172,14840 C 12072,14840 12000,14858 11958,14888 11916,14919 11846,15009 11747,15157 L 11515,15504 11132,15504 11325,15193 C 11403,15072 11463,14985 11508,14937 11554,14888 11611,14843 11680,14804 11533,14780 11424,14729 11358,14647 11294,14566 11261,14472 11261,14361 11261,14264 11285,14180 11334,14104 11382,14029 11445,13981 11527,13954 11605,13929 11726,13914 11882,13914 L 12558,13914 12558,15504 12235,15504 Z M 12235,15504 L 12235,15504 Z M 12235,14183 L 11988,14183 C 11861,14183 11777,14186 11738,14192 11695,14198 11662,14216 11632,14249 11605,14285 11590,14328 11590,14382 11590,14436 11605,14481 11632,14511 11659,14545 11695,14566 11738,14575 11780,14581 11867,14587 12000,14587 L 12235,14587 12235,14183 Z"/>
        </g>
       </g>
       <g class="com.sun.star.drawing.ClosedBezierShape">
        <g id="id7">
         <rect class="BoundingBox" stroke="none" fill="none" x="7012" y="3543" width="4395" height="2614"/>
         <path fill="rgb(71,82,86)" stroke="none" d="M 8306,5917 C 8306,6074 8225,6155 8062,6155 L 7244,6155 C 7088,6155 7012,6074 7012,5917 L 7012,3782 C 7012,3622 7091,3544 7247,3544 L 8062,3544 C 8225,3544 8306,3622 8306,3782 L 8306,4340 7911,4340 7911,3878 7401,3878 7401,5820 7911,5820 7911,5091 7618,5091 7618,4753 8306,4753 8306,5917 Z M 8306,5917 L 8306,5917 Z M 9877,4967 C 9877,5127 9799,5208 9639,5208 L 9006,5208 9006,6155 8617,6155 8617,3544 9639,3544 C 9799,3544 9877,3622 9877,3782 L 9877,4967 Z M 9877,4967 L 9877,4967 Z M 9482,4874 L 9482,3878 9006,3878 9006,4874 9482,4874 Z M 9482,4874 L 9482,4874 Z M 11406,5917 C 11406,6074 11328,6155 11171,6155 L 10384,6155 C 10224,6155 10145,6074 10145,5917 L 10145,5293 10540,5293 10540,5827 11017,5827 11017,5314 10233,4572 C 10176,4518 10145,4448 10145,4361 L 10145,3782 C 10145,3622 10224,3544 10384,3544 L 11171,3544 C 11328,3544 11406,3622 11406,3779 L 11406,4361 11017,4361 11017,3869 10540,3869 10540,4343 11322,5082 C 11379,5136 11406,5205 11406,5293 L 11406,5917 Z"/>
        </g>
       </g>
       <g class="com.sun.star.drawing.ClosedBezierShape">
        <g id="id8">
         <rect class="BoundingBox" stroke="none" fill="none" x="2522" y="9158" width="1883" height="982"/>
         <path fill="rgb(77,167,175)" stroke="none" d="M 2917,9159 L 4009,9159 C 4226,9159 4404,9334 4404,9557 L 4404,9741 C 4404,9961 4226,10139 4009,10139 L 2917,10139 C 2697,10139 2522,9961 2522,9741 L 2522,9557 C 2522,9334 2697,9159 2917,9159 Z"/>
        </g>
       </g>
       <g class="com.sun.star.drawing.ClosedBezierShape">
        <g id="id9">
         <rect class="BoundingBox" stroke="none" fill="none" x="2522" y="11185" width="1883" height="982"/>
         <path fill="rgb(77,167,175)" stroke="none" d="M 2917,11185 L 4009,11185 C 4226,11185 4404,11360 4404,11583 L 4404,11767 C 4404,11987 4226,12165 4009,12165 L 2917,12165 C 2697,12165 2522,11987 2522,11767 L 2522,11583 C 2522,11360 2697,11185 2917,11185 Z"/>
        </g>
       </g>
       <g class="com.sun.star.drawing.ClosedBezierShape">
        <g id="id10">
         <rect class="BoundingBox" stroke="none" fill="none" x="2522" y="13166" width="1883" height="982"/>
         <path fill="rgb(77,167,175)" stroke="none" d="M 2917,13167 L 4009,13167 C 4226,13167 4404,13341 4404,13565 L 4404,13749 C 4404,13969 4226,14147 4009,14147 L 2917,14147 C 2697,14147 2522,13969 2522,13749 L 2522,13565 C 2522,13341 2697,13167 2917,13167 Z"/>
        </g>
       </g>
       <g class="com.sun.star.drawing.ClosedBezierShape">
        <g id="id11">
         <rect class="BoundingBox" stroke="none" fill="none" x="13975" y="9158" width="1884" height="982"/>
         <path fill="rgb(77,167,175)" stroke="none" d="M 14370,9159 L 15462,9159 C 15679,9159 15857,9334 15857,9557 L 15857,9741 C 15857,9961 15679,10139 15462,10139 L 14370,10139 C 14150,10139 13975,9961 13975,9741 L 13975,9557 C 13975,9334 14150,9159 14370,9159 Z"/>
        </g>
       </g>
       <g class="com.sun.star.drawing.ClosedBezierShape">
        <g id="id12">
         <rect class="BoundingBox" stroke="none" fill="none" x="13975" y="11185" width="1884" height="982"/>
         <path fill="rgb(77,167,175)" stroke="none" d="M 14370,11185 L 15462,11185 C 15679,11185 15857,11360 15857,11583 L 15857,11767 C 15857,11987 15679,12165 15462,12165 L 14370,12165 C 14150,12165 13975,11987 13975,11767 L 13975,11583 C 13975,11360 14150,11185 14370,11185 Z"/>
        </g>
       </g>
       <g class="com.sun.star.drawing.ClosedBezierShape">
        <g id="id13">
         <rect class="BoundingBox" stroke="none" fill="none" x="13975" y="13166" width="1884" height="982"/>
         <path fill="rgb(77,167,175)" stroke="none" d="M 14370,13167 L 15462,13167 C 15679,13167 15857,13341 15857,13565 L 15857,13749 C 15857,13969 15679,14147 15462,14147 L 14370,14147 C 14150,14147 13975,13969 13975,13749 L 13975,13565 C 13975,13341 14150,13167 14370,13167 Z"/>
        </g>
       </g>
       <g class="com.sun.star.drawing.ClosedBezierShape">
        <g id="id14">
         <rect class="BoundingBox" stroke="none" fill="none" x="8652" y="7644" width="1278" height="1278"/>
         <path fill="rgb(255,255,255)" stroke="none" d="M 9292,7645 C 9642,7645 9928,7928 9928,8284 9928,8634 9642,8921 9292,8921 8936,8921 8653,8634 8653,8284 8653,7928 8936,7645 9292,7645 Z"/>
        </g>
       </g>
      </g>
     </g>
    </g>
   </g>
  </g>
 </g>
</svg>